<svg version="1.2" xmlns="http://www.w3.org/2000/svg" viewBox="0 0 531 153" width="531" height="153">
	<title>6937152-ai</title>
	<defs>
		<linearGradient id="g1" x1="187.8" y1="14.8" x2="526.7" y2="20.9" gradientUnits="userSpaceOnUse">
			<stop offset="0" stop-color="#334e5a"/>
			<stop offset="1" stop-color="#1c313a"/>
		</linearGradient>
		<linearGradient id="g2" x1="209.6" y1="-5" x2="366.8" y2="27.6" gradientUnits="userSpaceOnUse">
			<stop offset="0" stop-color="#2e5d71"/>
			<stop offset="1" stop-color="#1c313a"/>
			<stop offset="1" stop-color="#2d2b71"/>
		</linearGradient>
		<linearGradient id="g3" x1="81.9" y1="47.9" x2="227.3" y2="39.8" gradientUnits="userSpaceOnUse">
			<stop offset="0" stop-color="#3d5965"/>
			<stop offset="1" stop-color="#1c313a"/>
		</linearGradient>
		<linearGradient id="g4" x1="503.6" y1="74.8" x2="506.1" y2="98.8" gradientUnits="userSpaceOnUse">
			<stop offset="0" stop-color="#fefefe"/>
			<stop offset="1" stop-color="#5d6365"/>
		</linearGradient>
		<linearGradient id="g5" x1="187.8" y1="16" x2="389.5" y2="19.7" gradientUnits="userSpaceOnUse">
			<stop offset="0" stop-color="#56869b"/>
			<stop offset="1" stop-color="#1c313a"/>
		</linearGradient>
		<linearGradient id="g6" x1="108.5" y1="-2.2" x2="409.7" y2="3.3" gradientUnits="userSpaceOnUse">
			<stop offset="0" stop-color="#44616e"/>
			<stop offset="1" stop-color="#1a2f38"/>
		</linearGradient>
		<linearGradient id="g7" x1="147.4" y1="45.5" x2="216.8" y2="59.9" gradientUnits="userSpaceOnUse">
			<stop offset="0" stop-color="#435f6c"/>
			<stop offset="1" stop-color="#1c313a"/>
		</linearGradient>
		<linearGradient id="g8" x1="-0.1" y1="57.9" x2="49.9" y2="56.8" gradientUnits="userSpaceOnUse">
			<stop offset="0" stop-color="#f3807a"/>
			<stop offset="1" stop-color="#b81e35"/>
		</linearGradient>
	</defs>
	<style>
		.s0 { fill: url(#g1) } 
		.s1 { fill: url(#g2) } 
		.s2 { fill: url(#g3) } 
		.s3 { fill: url(#g4) } 
		.s4 { fill: url(#g5) } 
		.s5 { fill: url(#g6) } 
		.s6 { fill: url(#g7) } 
		.s7 { fill: url(#g8) } 
		.s8 { fill: #1b3541 } 
	</style>
	<g id="BACKGROUND">
		<g id="&lt;Group&gt;">
		</g>
	</g>
	<g id="OBJECTS">
		<g id="&lt;Group&gt;">
			<path id="&lt;Path&gt;" class="s0" d="m388.7 49.6h0.3c63.2 1.9 120.5 6.3 136.7 28.4-16.2-18.6-151.7-3.1-246.3-13.9-48.8-5.6-86.7-18.2-91.6-46.2 19.9 31 115.7 29.1 200.9 31.7z"/>
			<path id="&lt;Path&gt;" class="s1" d="m86.6 23.4c7.4-2.7 14.7-5 21.8-7.1q0.1 0 0.1 0c82.9-24.3 152.5-13.7 170.5-11.6 20.1 2.5 105.4 30.7 129.7 45.6 0 0-99-34.5-130.1-37.1-123.8-10.3-195.3 52.9-277.7 32 0 0 32.5-2.6 85.7-21.8z"/>
			<path id="&lt;Path&gt;" class="s2" d="m62.4 52.1c47.2-3.7 111.4-12.1 170.6 15.3-16.3-3.4-35.6-3.7-56.1-2.9-65.8 2.5-143.7 17.1-176-19.3 11.6 9.5 33.6 9 61.5 6.9z"/>
			<path id="&lt;Path&gt;" class="s3" d="m488.4 76.2c16.3 0.3 38.3 3.8 41.9 17.8-2.7-2.9-10.6-2.6-19.9-2.5-15 0.3-33.5 0.3-38.8-14.2 2.5-0.6 9-1.2 16.8-1.1z"/>
			<path id="&lt;Path&gt;" class="s4" d="m388.7 49.6c-56.4-1.4-70.9 16.3-109.3 14.5-48.8-5.6-86.7-18.2-91.6-46.2 19.9 31 115.7 29.1 200.9 31.7z"/>
			<path id="&lt;Path&gt;" class="s5" d="m279 4.7c20.1 2.5 105.4 30.7 129.7 45.6 0 0-99-34.5-130.1-37.1-72.2-12.4-117.8-5.1-170.1 3.1 82.9-24.3 152.5-13.7 170.5-11.6z"/>
			<path id="&lt;Path&gt;" class="s6" d="m233 67.4c-16.3-3.4-35.6-3.7-56.1-2.9q0 0 0 0c-63.7 1.1-75.2-13.1-114.5-12.4 47.2-3.7 111.4-12.1 170.6 15.3z"/>
			<path id="&lt;Path&gt;" class="s7" d="m49.9 76c-33.9-4.2-48.3-18.5-48.3-18.5-4.1 17.1 2.3 30.8 48.3 18.5z"/>
		</g>
	</g>
	<g id="TEXTS">
		<g id="&lt;Group&gt;">
			<path id="Autoworld" class="s8" aria-label="Autoworld"  d="m59.3 151l0.7-15.9h-14.2l-6.4 15.9h-13.1l30.2-72h17.6l-1.4 72zm-9.4-26.4h10.6l1.3-30.1zm6.2 26.4l0.7-15.9h-14.2l-6.4 15.9h-13.1l30.2-72h17.6l-1.4 72zm-9.4-26.4h10.6l1.3-30.1zm49.7 27.4q-9.1 0-13.8-4.6-4.7-4.8-3-12.3l12.3-56.1h13.2l-12.3 56.1q-0.7 3.1 0.9 4.9 1.7 1.7 4.9 1.7 3.3 0 5.6-1.7 2.5-1.8 3.2-4.9l12.3-56.1h13l-12.4 56.1q-1.6 7.5-8.3 12.3-6.6 4.6-15.6 4.6zm-3.3 0q-9.1 0-13.8-4.6-4.6-4.8-3-12.3l12.4-56.1h13.1l-12.3 56.1q-0.7 3.1 0.9 4.9 1.7 1.7 5 1.7 3.2 0 5.6-1.7 2.5-1.8 3.1-4.9l12.4-56.1h12.9l-12.4 56.1q-1.6 7.5-8.2 12.3-6.6 4.6-15.7 4.6zm41-62.7l2.3-10.3h42l-2.3 10.3h-14.4l-13.6 61.7h-13.1l13.5-61.7zm-3.2 0l2.2-10.3h42l-2.3 10.3h-14.4l-13.5 61.7h-13.2l13.6-61.7zm55.7 62.7q-9.5 0-14.3-4.7-4.8-4.9-3-12.7l8.6-39.2q1.7-7.9 8.6-12.6 6.9-4.8 16.3-4.8 9.5 0 14.2 4.8 4.8 4.7 3.1 12.6l-8.6 39.2q-1.7 7.8-8.6 12.7-6.9 4.7-16.3 4.7zm2.2-10.3q3.7 0 6.3-1.8 2.5-1.9 3.2-5.3l8.7-39.2q0.7-3.4-1-5.3-1.7-1.8-5.4-1.8-3.8 0-6.3 1.8-2.5 1.9-3.2 5.3l-8.7 39.2q-0.7 3.4 1 5.3 1.7 1.8 5.4 1.8zm-5.5 10.3q-9.5 0-14.3-4.7-4.7-4.9-3-12.7l8.6-39.2q1.7-7.9 8.6-12.6 6.9-4.8 16.4-4.8 9.4 0 14.2 4.8 4.8 4.7 3 12.6l-8.6 39.2q-1.7 7.8-8.6 12.7-6.9 4.7-16.3 4.7zm2.2-10.3q3.8 0 6.3-1.8 2.5-1.9 3.2-5.3l8.7-39.2q0.7-3.4-1-5.3-1.7-1.8-5.4-1.8-3.7 0-6.3 1.8-2.5 1.9-3.2 5.3l-8.6 39.2q-0.8 3.4 0.9 5.3 1.7 1.8 5.4 1.8zm96.8-62.7h13.1l-28.6 72h-14.6l3.5-47.4-17.4 47.4h-14.5l3-72h13.3l-3.5 48.6 17.9-48.6h13.4l-3.5 48.6zm-3.2 0h13l-28.6 72h-14.5l3.4-47.4-17.3 47.4h-14.6l3.1-72h13.2l-3.4 48.7 17.8-48.7h13.5l-3.5 48.7zm24.5 72.9q-9.5 0-14.3-4.7-4.7-4.8-3-12.6l8.6-39.3q1.7-7.8 8.6-12.5 6.9-4.9 16.3-4.9 9.5 0 14.2 4.9 4.8 4.7 3.1 12.5l-8.6 39.3q-1.7 7.8-8.6 12.6-6.9 4.7-16.3 4.7zm2.2-10.2q3.7 0 6.3-1.9 2.5-1.8 3.2-5.2l8.7-39.3q0.7-3.4-1-5.2-1.7-1.9-5.4-1.9-3.8 0-6.3 1.9-2.5 1.8-3.2 5.2l-8.7 39.3q-0.7 3.4 1 5.2 1.7 1.9 5.4 1.9zm-5.5 10.2q-9.5 0-14.2-4.7-4.8-4.8-3.1-12.6l8.6-39.3q1.7-7.8 8.6-12.5 6.9-4.9 16.4-4.9 9.4 0 14.2 4.9 4.8 4.7 3.1 12.5l-8.7 39.3q-1.7 7.8-8.6 12.6-6.9 4.7-16.3 4.7zm2.2-10.2q3.8 0 6.3-1.9 2.5-1.8 3.3-5.2l8.6-39.3q0.7-3.4-1-5.2-1.7-1.9-5.4-1.9-3.7 0-6.2 1.9-2.6 1.8-3.3 5.2l-8.6 39.3q-0.8 3.4 0.9 5.2 1.7 1.9 5.4 1.9zm73 9.2h-13.7l-3-29.7h-6.9l-6.5 29.7h-13.2l15.9-71.9h20.6q9.4 0 14 4.7 4.5 4.6 2.8 12.4l-1.7 7.9q-1.1 5-4.3 8.8-3.2 3.8-8 5.9zm-16.5-61.6l-4.8 21.6h6.8q3.9 0 6.4-1.7 2.5-1.7 3.2-4.9l1.8-8.4q0.7-3.1-1-4.9-1.7-1.7-5.6-1.7zm13.2 61.6h-13.6l-3.1-29.7h-6.8l-6.5 29.7h-13.2l15.8-71.9h20.6q9.5 0 14 4.7 4.6 4.6 2.9 12.4l-1.8 8q-1 4.9-4.2 8.7-3.2 3.8-8.1 6zm-16.4-61.7l-4.8 21.7h6.8q3.9 0 6.4-1.8 2.5-1.7 3.2-4.9l1.8-8.3q0.7-3.2-1-5-1.8-1.7-5.6-1.7zm24.6 61.7l15.8-72h13.2l-13.6 61.7h23.5l-2.3 10.3zm-3.2 0l15.8-72h13.1l-13.5 61.7h23.5l-2.3 10.3zm44.1 0l15.9-72h20.6q9.4 0 14 4.7 4.5 4.7 2.8 12.5l-8.3 37.6q-1.7 7.8-8.3 12.5-6.6 4.7-16 4.7zm15.4-10.3h6.8q3.9 0 6.4-1.8 2.5-1.7 3.2-4.9l8.3-38q0.7-3.2-1-5-1.7-1.7-5.6-1.7h-6.8zm-18.7 10.3l15.8-72h20.6q9.5 0 14 4.7 4.6 4.7 2.9 12.5l-8.3 37.6q-1.7 7.8-8.4 12.5-6.6 4.7-16 4.7zm15.4-10.3h6.9q3.8 0 6.3-1.8 2.5-1.7 3.2-4.9l8.4-38q0.7-3.2-1.1-5-1.7-1.7-5.5-1.7h-6.9z"/>
		</g>
	</g>
</svg>